<svg width="60" height="60" viewBox="0 0 60 60" fill="none" xmlns="http://www.w3.org/2000/svg">
<rect x="0.5" y="0.5" width="59" height="59" stroke="#141414"/>
<path d="M10.7398 18V10.7373H15.5643V11.8105H11.9485V13.7382H15.2829V14.8219H11.9485V16.9267H15.5643V18H10.7398ZM20.8272 18V16.6871H22.0984V18H20.8272ZM26.9983 18L29.8742 10.7373H30.7912L33.6567 18H32.3437L30.3327 12.4982L28.3216 18H26.9983ZM28.7905 16.4787L29.1656 15.4054H31.4893L31.8853 16.4787H28.7905ZM38.5554 18V16.6871H39.8267V18H38.5554ZM13.8033 34.1459C13.1503 34.1459 12.5703 33.9896 12.0632 33.677C11.5561 33.3644 11.1601 32.9233 10.8753 32.3536C10.5905 31.784 10.4481 31.1206 10.4481 30.3634C10.4481 29.6062 10.5905 28.9463 10.8753 28.3836C11.167 27.814 11.5699 27.3729 12.084 27.0603C12.5981 26.7477 13.1955 26.5914 13.8762 26.5914C14.6334 26.5914 15.2864 26.7789 15.8352 27.1541C16.3909 27.5292 16.7904 28.0502 17.0335 28.7171L15.9081 29.1234C15.7414 28.6858 15.4844 28.3454 15.1371 28.1023C14.7897 27.8591 14.3695 27.7376 13.8762 27.7376C13.4247 27.7376 13.0322 27.8453 12.6988 28.0606C12.3653 28.2759 12.1048 28.5781 11.9173 28.9671C11.7367 29.3562 11.6464 29.8216 11.6464 30.3634C11.6464 30.9053 11.7367 31.3742 11.9173 31.7701C12.1048 32.1591 12.3653 32.4613 12.6988 32.6767C13.0322 32.892 13.4247 32.9997 13.8762 32.9997C14.1124 32.9997 14.3521 32.9684 14.5952 32.9059C14.8384 32.8364 15.0641 32.7218 15.2725 32.562C15.4809 32.4023 15.6476 32.18 15.7727 31.8952C15.9047 31.6034 15.9707 31.2387 15.9707 30.8011V30.3426L16.2416 31.1762H14.168V30.1029H17.0335V34H15.9707L15.8039 32.7392L16.0123 32.9059C15.8804 33.1838 15.7032 33.4165 15.4809 33.604C15.2656 33.7847 15.012 33.9201 14.7203 34.0104C14.4354 34.1007 14.1298 34.1459 13.8033 34.1459ZM22.56 34V26.7373H24.8837C25.4602 26.7373 25.9291 26.8241 26.2904 26.9978C26.6516 27.1645 26.9156 27.4041 27.0823 27.7167C27.256 28.0293 27.3428 28.3975 27.3428 28.8213C27.3428 29.4673 27.1552 29.9709 26.7801 30.3322C26.4119 30.6864 25.884 30.8914 25.1963 30.9469C25.0573 30.9469 24.908 30.9469 24.7482 30.9469C24.5884 30.9469 24.446 30.9469 24.321 30.9469H23.7687V34H22.56ZM26.5404 34L24.6961 30.8115L25.9361 30.6656L27.9367 34H26.5404ZM23.7687 29.8841H24.7586C25.0226 29.8841 25.2553 29.8528 25.4568 29.7903C25.6652 29.7278 25.8284 29.6201 25.9465 29.4673C26.0715 29.3145 26.1341 29.1026 26.1341 28.8317C26.1341 28.5608 26.0715 28.3524 25.9465 28.2065C25.8284 28.0606 25.6652 27.9599 25.4568 27.9043C25.2484 27.8418 25.0157 27.8105 24.7586 27.8105H23.7687V29.8841ZM33.0166 34V26.7373H34.2254V34H33.0166ZM42.9345 34.1459C42.2815 34.1459 41.7015 33.9896 41.1944 33.677C40.6873 33.3644 40.2913 32.9233 40.0065 32.3536C39.7217 31.784 39.5793 31.1206 39.5793 30.3634C39.5793 29.6062 39.7217 28.9463 40.0065 28.3836C40.2983 27.814 40.7012 27.3729 41.2152 27.0603C41.7293 26.7477 42.3267 26.5914 43.0075 26.5914C43.7647 26.5914 44.4176 26.7789 44.9664 27.1541C45.5222 27.5292 45.9216 28.0502 46.1647 28.7171L45.0394 29.1234C44.8726 28.6858 44.6156 28.3454 44.2683 28.1023C43.921 27.8591 43.5007 27.7376 43.0075 27.7376C42.5559 27.7376 42.1634 27.8453 41.83 28.0606C41.4966 28.2759 41.2361 28.5781 41.0485 28.9671C40.8679 29.3562 40.7776 29.8216 40.7776 30.3634C40.7776 30.9053 40.8679 31.3742 41.0485 31.7701C41.2361 32.1591 41.4966 32.4613 41.83 32.6767C42.1634 32.892 42.5559 32.9997 43.0075 32.9997C43.2437 32.9997 43.4833 32.9684 43.7264 32.9059C43.9696 32.8364 44.1953 32.7218 44.4037 32.562C44.6121 32.4023 44.7789 32.18 44.9039 31.8952C45.0359 31.6034 45.1019 31.2387 45.1019 30.8011V30.3426L45.3728 31.1762H43.2992V30.1029H46.1647V34H45.1019L44.9352 32.7392L45.1436 32.9059C45.0116 33.1838 44.8344 33.4165 44.6121 33.604C44.3968 33.7847 44.1432 33.9201 43.8515 34.0104C43.5667 34.1007 43.261 34.1459 42.9345 34.1459ZM13.8762 50.1459C13.1955 50.1459 12.5981 49.9896 12.084 49.677C11.5699 49.3644 11.167 48.9233 10.8753 48.3536C10.5905 47.784 10.4481 47.1241 10.4481 46.3738C10.4481 45.6167 10.5905 44.9532 10.8753 44.3836C11.167 43.814 11.5699 43.3729 12.084 43.0603C12.5981 42.7477 13.1955 42.5914 13.8762 42.5914C14.5709 42.5914 15.1753 42.7477 15.6893 43.0603C16.2103 43.3729 16.6132 43.814 16.898 44.3836C17.1898 44.9463 17.3357 45.6097 17.3357 46.3738C17.3357 47.131 17.1898 47.7944 16.898 48.3641C16.6063 48.9267 16.1999 49.3644 15.6789 49.677C15.1648 49.9896 14.564 50.1459 13.8762 50.1459ZM13.8762 48.9997C14.3417 48.9997 14.7411 48.892 15.0745 48.6767C15.408 48.4613 15.665 48.1591 15.8456 47.7701C16.0332 47.3742 16.127 46.9087 16.127 46.3738C16.127 45.832 16.0332 45.3666 15.8456 44.9776C15.665 44.5816 15.408 44.2759 15.0745 44.0606C14.7411 43.8453 14.3417 43.7376 13.8762 43.7376C13.4247 43.7376 13.0322 43.8453 12.6988 44.0606C12.3653 44.269 12.1048 44.5712 11.9173 44.9671C11.7367 45.3562 11.6464 45.8251 11.6464 46.3738C11.6464 46.9157 11.7367 47.3846 11.9173 47.7805C12.0979 48.1696 12.3549 48.4717 12.6884 48.6871C13.0287 48.8955 13.4247 48.9997 13.8762 48.9997ZM22.7025 50V42.7373H25.0261C25.6027 42.7373 26.0716 42.8241 26.4328 42.9978C26.7941 43.1645 27.058 43.4041 27.2247 43.7167C27.3984 44.0293 27.4852 44.3975 27.4852 44.8213C27.4852 45.4673 27.2977 45.9709 26.9226 46.3322C26.5544 46.6864 26.0264 46.8914 25.3387 46.9469C25.1998 46.9469 25.0504 46.9469 24.8907 46.9469C24.7309 46.9469 24.5885 46.9469 24.4634 46.9469H23.9112V50H22.7025ZM26.6829 50L24.8386 46.8115L26.0785 46.6656L28.0792 50H26.6829ZM23.9112 45.8841H24.9011C25.1651 45.8841 25.3978 45.8528 25.5992 45.7903C25.8076 45.7278 25.9709 45.6201 26.089 45.4673C26.214 45.3145 26.2765 45.1026 26.2765 44.8317C26.2765 44.5608 26.214 44.3524 26.089 44.2065C25.9709 44.0606 25.8076 43.9599 25.5992 43.9043C25.3908 43.8418 25.1581 43.8105 24.9011 43.8105H23.9112V45.8841ZM33.1591 50V42.7373H37.9836V43.8105H34.3678V45.7382H37.7022V46.8219H34.3678V48.9267H37.9836V50H33.1591ZM45.6639 50L42.7463 42.7373H44.0801L46.2995 48.5308H45.9348L48.123 42.7373H49.4568L46.56 50H45.6639Z" fill="#141414"/>
</svg>
