<svg width="61" height="60" viewBox="0 0 61 60" fill="none" xmlns="http://www.w3.org/2000/svg">
<rect x="0.5" y="0.5" width="60" height="59" stroke="#141414"/>
<path d="M9.75056 18V16.7392H13.4288V18H9.75056ZM9.75056 11.9668V10.706H13.4288V11.9668H9.75056ZM9.75056 14.749V13.509H13.2204V14.749H9.75056ZM8.79192 10.706H10.2299V18H8.79192V10.706ZM20.1074 17.3852C20.1074 17.149 20.1873 16.9511 20.347 16.7913C20.5138 16.6246 20.7187 16.5412 20.9618 16.5412C21.2119 16.5412 21.4168 16.6246 21.5766 16.7913C21.7364 16.9511 21.8163 17.149 21.8163 17.3852C21.8163 17.6075 21.7364 17.802 21.5766 17.9687C21.4168 18.1355 21.2119 18.2188 20.9618 18.2188C20.7187 18.2188 20.5138 18.1355 20.347 17.9687C20.1873 17.802 20.1074 17.6075 20.1074 17.3852ZM29.6149 16.3432L29.792 15.1658H33.2932L33.4703 16.3432H29.6149ZM31.5218 13.0713L30.4277 15.5826L30.4589 15.916L29.5003 18H27.8227L31.5218 10.2788L35.2209 18H33.5328L32.595 15.9785L32.6159 15.6034L31.5218 13.0713ZM41.5376 17.3852C41.5376 17.149 41.6175 16.9511 41.7772 16.7913C41.944 16.6246 42.1489 16.5412 42.392 16.5412C42.6421 16.5412 42.847 16.6246 43.0068 16.7913C43.1666 16.9511 43.2465 17.149 43.2465 17.3852C43.2465 17.6075 43.1666 17.802 43.0068 17.9687C42.847 18.1355 42.6421 18.2188 42.392 18.2188C42.1489 18.2188 41.944 18.1355 41.7772 17.9687C41.6175 17.802 41.5376 17.6075 41.5376 17.3852ZM12.3347 31.2908V30.1029H15.9296C15.9505 30.6587 15.8845 31.1831 15.7316 31.6763C15.5858 32.1696 15.353 32.6072 15.0335 32.9893C14.7209 33.3644 14.3319 33.6596 13.8665 33.875C13.401 34.0903 12.8696 34.198 12.2722 34.198C11.7095 34.198 11.1885 34.1042 10.7092 33.9166C10.2368 33.7291 9.8235 33.4651 9.46922 33.1247C9.12189 32.7843 8.85097 32.378 8.65646 31.9056C8.4689 31.4332 8.37512 30.9157 8.37512 30.353C8.37512 29.7903 8.47237 29.2763 8.66688 28.8108C8.86833 28.3385 9.1462 27.9356 9.50048 27.6021C9.85476 27.2687 10.2716 27.0117 10.7509 26.831C11.2302 26.6504 11.7512 26.5601 12.3139 26.5601C12.814 26.5601 13.2621 26.6296 13.6581 26.7685C14.061 26.9075 14.4152 27.102 14.7209 27.352C15.0335 27.5952 15.3009 27.8869 15.5232 28.2273L14.252 28.9671C14.0714 28.6476 13.8178 28.3906 13.4913 28.1961C13.1718 27.9946 12.7793 27.8939 12.3139 27.8939C11.8762 27.8939 11.4768 27.9946 11.1156 28.1961C10.7544 28.3906 10.4661 28.6719 10.2507 29.0401C10.0423 29.4083 9.93812 29.8459 9.93812 30.353C9.93812 30.8532 10.0423 31.2943 10.2507 31.6763C10.4591 32.0515 10.7405 32.3432 11.0947 32.5516C11.456 32.76 11.8623 32.8642 12.3139 32.8642C12.6126 32.8642 12.88 32.826 13.1162 32.7496C13.3524 32.6662 13.5539 32.5516 13.7206 32.4057C13.8942 32.2599 14.0401 32.0931 14.1582 31.9056C14.2763 31.718 14.3666 31.5131 14.4291 31.2908H12.3347ZM24.013 30.6031H25.5864L27.9622 34H26.2012L24.013 30.6031ZM22.3562 26.706H23.8463V34H22.3562V26.706ZM23.2628 27.9772V26.706H24.8049C25.3815 26.706 25.8713 26.8033 26.2742 26.9978C26.6771 27.1923 26.9862 27.4632 27.2015 27.8105C27.4169 28.1579 27.5246 28.5642 27.5246 29.0297C27.5246 29.4881 27.4169 29.8945 27.2015 30.2488C26.9862 30.5961 26.6771 30.8671 26.2742 31.0616C25.8713 31.2561 25.3815 31.3533 24.8049 31.3533H23.2628V30.1654H24.7112C24.9751 30.1654 25.2009 30.1238 25.3885 30.0404C25.583 29.9501 25.7323 29.8251 25.8365 29.6653C25.9407 29.4986 25.9928 29.3006 25.9928 29.0713C25.9928 28.8421 25.9407 28.6476 25.8365 28.4878C25.7323 28.3211 25.583 28.1961 25.3885 28.1127C25.2009 28.0224 24.9751 27.9772 24.7112 27.9772H23.2628ZM34.0279 26.706H35.5388V34H34.0279V26.706ZM45.8639 31.2908V30.1029H49.4588C49.4797 30.6587 49.4137 31.1831 49.2608 31.6763C49.115 32.1696 48.8822 32.6072 48.5627 32.9893C48.2501 33.3644 47.8611 33.6596 47.3957 33.875C46.9302 34.0903 46.3988 34.198 45.8014 34.198C45.2387 34.198 44.7177 34.1042 44.2384 33.9166C43.766 33.7291 43.3527 33.4651 42.9984 33.1247C42.6511 32.7843 42.3802 32.378 42.1857 31.9056C41.9981 31.4332 41.9043 30.9157 41.9043 30.353C41.9043 29.7903 42.0016 29.2763 42.1961 28.8108C42.3975 28.3385 42.6754 27.9356 43.0297 27.6021C43.384 27.2687 43.8008 27.0117 44.2801 26.831C44.7594 26.6504 45.2804 26.5601 45.8431 26.5601C46.3432 26.5601 46.7913 26.6296 47.1873 26.7685C47.5902 26.9075 47.9444 27.102 48.2501 27.352C48.5627 27.5952 48.8301 27.8869 49.0524 28.2273L47.7812 28.9671C47.6006 28.6476 47.347 28.3906 47.0205 28.1961C46.701 27.9946 46.3085 27.8939 45.8431 27.8939C45.4054 27.8939 45.006 27.9946 44.6448 28.1961C44.2836 28.3906 43.9953 28.6719 43.7799 29.0401C43.5715 29.4083 43.4673 29.8459 43.4673 30.353C43.4673 30.8532 43.5715 31.2943 43.7799 31.6763C43.9883 32.0515 44.2697 32.3432 44.6239 32.5516C44.9852 32.76 45.3915 32.8642 45.8431 32.8642C46.1418 32.8642 46.4092 32.826 46.6454 32.7496C46.8816 32.6662 47.0831 32.5516 47.2498 32.4057C47.4234 32.2599 47.5693 32.0931 47.6874 31.9056C47.8055 31.718 47.8958 31.5131 47.9583 31.2908H45.8639ZM9.94854 46.353C9.94854 46.8184 10.0458 47.2318 10.2403 47.593C10.4348 47.9542 10.7023 48.239 11.0426 48.4474C11.383 48.6558 11.779 48.76 12.2305 48.76C12.6821 48.76 13.078 48.6558 13.4184 48.4474C13.7588 48.239 14.0228 47.9542 14.2103 47.593C14.4048 47.2318 14.5021 46.8184 14.5021 46.353C14.5021 45.8876 14.4083 45.4742 14.2207 45.113C14.0332 44.7518 13.7692 44.467 13.4288 44.2586C13.0884 44.0502 12.689 43.946 12.2305 43.946C11.779 43.946 11.383 44.0502 11.0426 44.2586C10.7023 44.467 10.4348 44.7518 10.2403 45.113C10.0458 45.4742 9.94854 45.8876 9.94854 46.353ZM8.37512 46.353C8.37512 45.7973 8.47237 45.2902 8.66688 44.8317C8.86139 44.3663 9.13231 43.9633 9.47964 43.623C9.82697 43.2826 10.2334 43.0221 10.6988 42.8415C11.1712 42.6539 11.6817 42.5601 12.2305 42.5601C12.7863 42.5601 13.2968 42.6539 13.7623 42.8415C14.2277 43.0221 14.6341 43.2826 14.9814 43.623C15.3357 43.9633 15.6066 44.3663 15.7942 44.8317C15.9887 45.2902 16.0859 45.7973 16.0859 46.353C16.0859 46.9018 15.9887 47.4124 15.7942 47.8847C15.6066 48.3502 15.3392 48.7565 14.9918 49.1039C14.6514 49.4512 14.2451 49.7221 13.7727 49.9166C13.3073 50.1042 12.7932 50.198 12.2305 50.198C11.6678 50.198 11.1503 50.1042 10.6779 49.9166C10.2125 49.7221 9.80613 49.4512 9.4588 49.1039C9.11147 48.7565 8.84402 48.3502 8.65646 47.8847C8.4689 47.4124 8.37512 46.9018 8.37512 46.353ZM24.1046 46.6031H25.678L28.0538 50H26.2928L24.1046 46.6031ZM22.4478 42.706H23.9379V50H22.4478V42.706ZM23.3544 43.9772V42.706H24.8965C25.4731 42.706 25.9628 42.8033 26.3657 42.9978C26.7686 43.1923 27.0778 43.4632 27.2931 43.8105C27.5085 44.1579 27.6161 44.5642 27.6161 45.0297C27.6161 45.4881 27.5085 45.8945 27.2931 46.2488C27.0778 46.5961 26.7686 46.8671 26.3657 47.0616C25.9628 47.2561 25.4731 47.3533 24.8965 47.3533H23.3544V46.1654H24.8027C25.0667 46.1654 25.2925 46.1238 25.48 46.0404C25.6745 45.9501 25.8239 45.8251 25.9281 45.6653C26.0323 45.4986 26.0844 45.3006 26.0844 45.0713C26.0844 44.8421 26.0323 44.6476 25.9281 44.4878C25.8239 44.3211 25.6745 44.1961 25.48 44.1127C25.2925 44.0224 25.0667 43.9772 24.8027 43.9772H23.3544ZM35.0781 50V48.7392H38.7563V50H35.0781ZM35.0781 43.9668V42.706H38.7563V43.9668H35.0781ZM35.0781 46.749V45.509H38.5479V46.749H35.0781ZM34.1194 42.706H35.5574V50H34.1194V42.706ZM48.3525 47.4575L50.3219 42.706H52.0516L48.3525 50.4272L44.6534 42.706H46.3727L48.3525 47.4575Z" fill="#141414"/>
</svg>
